<svg width="2798" height="2344" xmlns="http://www.w3.org/2000/svg" xmlns:xlink="http://www.w3.org/1999/xlink" xml:space="preserve" overflow="hidden"><defs><linearGradient x1="1196" y1="1322.63" x2="2262.01" y2="1322.63" gradientUnits="userSpaceOnUse" spreadMethod="reflect" id="fill0"><stop offset="0" stop-color="#0F9ED5"/><stop offset="0.2" stop-color="#0F9ED5"/><stop offset="0.8" stop-color="#E97132"/><stop offset="1" stop-color="#E97132"/></linearGradient><linearGradient x1="1527" y1="261" x2="1940.01" y2="261" gradientUnits="userSpaceOnUse" spreadMethod="reflect" id="fill1"><stop offset="0"/><stop offset="0.2"/><stop offset="0.8" stop-color="#0F9ED5"/><stop offset="1" stop-color="#0F9ED5"/></linearGradient><linearGradient x1="2187" y1="95.9999" x2="2187" y2="426" gradientUnits="userSpaceOnUse" spreadMethod="reflect" id="fill2"><stop offset="0" stop-color="#9CCFF5"/><stop offset="0.5" stop-color="#8FC4EB"/><stop offset="1" stop-color="#79BEED"/></linearGradient><linearGradient x1="2517" y1="261" x2="2930.01" y2="261" gradientUnits="userSpaceOnUse" spreadMethod="reflect" id="fill3"><stop offset="0" stop-color="#0F9ED5"/><stop offset="0.2" stop-color="#0F9ED5"/><stop offset="0.8" stop-color="#4EA72E"/><stop offset="1" stop-color="#4EA72E"/></linearGradient><linearGradient x1="3177" y1="95.9999" x2="3177" y2="426" gradientUnits="userSpaceOnUse" spreadMethod="reflect" id="fill4"><stop offset="0" stop-color="#A8D5A0"/><stop offset="0.5" stop-color="#9BCA93"/><stop offset="1" stop-color="#8AC67E"/></linearGradient><linearGradient x1="3177" y1="756" x2="3177" y2="1086" gradientUnits="userSpaceOnUse" spreadMethod="reflect" id="fill5"><stop offset="0" stop-color="#9CCFF5"/><stop offset="0.5" stop-color="#8FC4EB"/><stop offset="1" stop-color="#79BEED"/></linearGradient><linearGradient x1="2187" y1="756" x2="2187" y2="1086" gradientUnits="userSpaceOnUse" spreadMethod="reflect" id="fill6"><stop offset="0" stop-color="#9CCFF5"/><stop offset="0.5" stop-color="#8FC4EB"/><stop offset="1" stop-color="#79BEED"/></linearGradient><linearGradient x1="1197" y1="756" x2="1197" y2="1086" gradientUnits="userSpaceOnUse" spreadMethod="reflect" id="fill7"><stop offset="0" stop-color="#9CCFF5"/><stop offset="0.5" stop-color="#8FC4EB"/><stop offset="1" stop-color="#79BEED"/></linearGradient><linearGradient x1="1197" y1="1086" x2="1197" y2="1499.01" gradientUnits="userSpaceOnUse" spreadMethod="reflect" id="fill8"><stop offset="0" stop-color="#0F9ED5"/><stop offset="0.2" stop-color="#0F9ED5"/><stop offset="0.8" stop-color="#4EA72E"/><stop offset="1" stop-color="#4EA72E"/></linearGradient><linearGradient x1="1197" y1="1416" x2="1197" y2="1746" gradientUnits="userSpaceOnUse" spreadMethod="reflect" id="fill9"><stop offset="0" stop-color="#A8D5A0"/><stop offset="0.5" stop-color="#9BCA93"/><stop offset="1" stop-color="#8AC67E"/></linearGradient><linearGradient x1="2187" y1="1416" x2="2187" y2="1746" gradientUnits="userSpaceOnUse" spreadMethod="reflect" id="fill10"><stop offset="0" stop-color="#F5B8A4"/><stop offset="0.5" stop-color="#F2AB96"/><stop offset="1" stop-color="#F59E81"/></linearGradient><linearGradient x1="3177" y1="1416" x2="3177" y2="1746" gradientUnits="userSpaceOnUse" spreadMethod="reflect" id="fill11"><stop offset="0" stop-color="#F5B8A4"/><stop offset="0.5" stop-color="#F2AB96"/><stop offset="1" stop-color="#F59E81"/></linearGradient><linearGradient x1="3177" y1="2077" x2="3177" y2="2407" gradientUnits="userSpaceOnUse" spreadMethod="reflect" id="fill12"><stop offset="0" stop-color="#F5B8A4"/><stop offset="0.5" stop-color="#F2AB96"/><stop offset="1" stop-color="#F59E81"/></linearGradient><linearGradient x1="2187" y1="2077" x2="2187" y2="2407" gradientUnits="userSpaceOnUse" spreadMethod="reflect" id="fill13"><stop offset="0" stop-color="#F5B8A4"/><stop offset="0.5" stop-color="#F2AB96"/><stop offset="1" stop-color="#F59E81"/></linearGradient><linearGradient x1="1197" y1="2077" x2="1197" y2="2407" gradientUnits="userSpaceOnUse" spreadMethod="reflect" id="fill14"><stop offset="0" stop-color="#A8D5A0"/><stop offset="0.5" stop-color="#9BCA93"/><stop offset="1" stop-color="#8AC67E"/></linearGradient><linearGradient x1="413.014" y1="0.000360892" x2="-1.50372e-05" y2="0.000360892" gradientUnits="userSpaceOnUse" spreadMethod="reflect" id="fill15"><stop offset="0" stop-color="#4EA72E"/><stop offset="0.2" stop-color="#4EA72E"/><stop offset="0.8" stop-color="#E97132"/><stop offset="1" stop-color="#E97132"/></linearGradient></defs><g transform="translate(-760 -80)"><path d="M1196 1150.25 2192.75 1150.25 2192.75 1343.25 2165.25 1343.25 2165.25 1164 2179 1177.75 1196 1177.75ZM2220.25 1329.5 2179 1412 2137.75 1329.5Z" fill="url(#fill0)"/><path d="M2675.75 263 2675.75 507.5 2662 493.75 3008.75 493.75 3008.75 683.25 2981.25 683.25 2981.25 507.5 2995 521.25 2648.25 521.25 2648.25 263ZM3036.25 669.5 2995 752 2953.75 669.5Z" fill="#0F9ED5"/><text font-family="Aptos,Aptos_MSFontService,sans-serif" font-weight="400" font-size="83" transform="matrix(1 0 0 1 876.979 1227)">parm7,</text><text font-family="Aptos,Aptos_MSFontService,sans-serif" font-weight="400" font-size="83" transform="matrix(1 0 0 1 936.333 1326)">rst7</text><text font-family="Aptos,Aptos_MSFontService,sans-serif" font-weight="400" font-size="83" transform="matrix(1 0 0 1 3219.63 517)">Residue</text><text font-family="Aptos,Aptos_MSFontService,sans-serif" font-weight="400" font-size="83" transform="matrix(1 0 0 1 3261.77 616)">counts</text><rect x="867" y="95.9999" width="660" height="330" stroke="#000000" stroke-width="13.75" stroke-miterlimit="8" fill="#404040"/><text fill="#FFFFFF" font-family="Aptos,Aptos_MSFontService,sans-serif" font-weight="700" font-size="73" transform="matrix(1 0 0 1 946.004 241)">1</text><text fill="#FFFFFF" font-family="Aptos,Aptos_MSFontService,sans-serif" font-weight="400" font-size="73" transform="matrix(1 0 0 1 984.962 241)">-</text><text fill="#FFFFFF" font-family="Aptos,Aptos_MSFontService,sans-serif" font-weight="400" font-size="73" transform="matrix(1 0 0 1 1010.17 241)">Retrieve input </text><text fill="#FFFFFF" font-family="Aptos,Aptos_MSFontService,sans-serif" font-weight="400" font-size="73" transform="matrix(1 0 0 1 912.247 329)">structure (PDB ID)</text><path d="M1527 247.25 1788.25 247.25 1788.25 274.75 1527 274.75ZM1774.5 219.75 1857 261 1774.5 302.25Z" fill="url(#fill1)"/><rect x="1857" y="95.9999" width="660" height="330" stroke="#0F9ED5" stroke-width="13.75" stroke-miterlimit="8" fill="url(#fill2)"/><text font-family="Aptos,Aptos_MSFontService,sans-serif" font-weight="700" font-size="73" transform="matrix(1 0 0 1 1907.76 241)">2</text><text font-family="Aptos,Aptos_MSFontService,sans-serif" font-weight="400" font-size="73" transform="matrix(1 0 0 1 1946.72 241)">-</text><text font-family="Aptos,Aptos_MSFontService,sans-serif" font-weight="400" font-size="73" transform="matrix(1 0 0 1 1971.93 241)">Choose chains, </text><text font-family="Aptos,Aptos_MSFontService,sans-serif" font-weight="400" font-size="73" transform="matrix(1 0 0 1 1954.28 329)">remove water?</text><path d="M2517 247.25 2778.25 247.25 2778.25 274.75 2517 274.75ZM2764.5 219.75 2847 261 2764.5 302.25Z" fill="url(#fill3)"/><rect x="2847" y="95.9999" width="660" height="330" stroke="#4EA72E" stroke-width="13.75" stroke-miterlimit="8" fill="url(#fill4)"/><text font-family="Aptos,Aptos_MSFontService,sans-serif" font-weight="700" font-size="73" transform="matrix(1 0 0 1 3005.34 241)">3</text><text font-family="Aptos,Aptos_MSFontService,sans-serif" font-weight="400" font-size="73" transform="matrix(1 0 0 1 3044.3 241)">-</text><text font-family="Aptos,Aptos_MSFontService,sans-serif" font-weight="400" font-size="73" transform="matrix(1 0 0 1 3065.86 241)">Visualize </text><text font-family="Aptos,Aptos_MSFontService,sans-serif" font-weight="400" font-size="73" transform="matrix(1 0 0 1 2936.43 329)">isolated chains</text><rect x="2847" y="756" width="660" height="330" stroke="#0F9ED5" stroke-width="13.75" stroke-miterlimit="8" fill="url(#fill5)"/><text font-family="Aptos,Aptos_MSFontService,sans-serif" font-weight="700" font-size="73" transform="matrix(1 0 0 1 2938.71 857)">4a</text><text font-family="Aptos,Aptos_MSFontService,sans-serif" font-weight="400" font-size="73" transform="matrix(1 0 0 1 3018.35 857)">-</text><text font-family="Aptos,Aptos_MSFontService,sans-serif" font-weight="400" font-size="73" transform="matrix(1 0 0 1 3043.55 857)">Protonation </text><text font-family="Aptos,Aptos_MSFontService,sans-serif" font-weight="400" font-size="73" transform="matrix(1 0 0 1 2956.27 945)">state method:</text><text font-family="Aptos,Aptos_MSFontService,sans-serif" font-weight="400" font-size="73" transform="matrix(1 0 0 1 2895.15 1033)">Skip, </text><text font-family="Aptos,Aptos_MSFontService,sans-serif" font-weight="400" font-size="73" transform="matrix(1 0 0 1 3064.8 1033)">PropKa</text><text font-family="Aptos,Aptos_MSFontService,sans-serif" font-weight="400" font-size="73" transform="matrix(1 0 0 1 3292.38 1033)">, H++</text><path d="M3190.75 426 3190.75 555.25 3163.25 555.25 3163.25 426ZM3218.25 541.5 3177 624 3135.75 541.5Z" fill="#4EA72E"/><rect x="1857" y="756" width="660" height="330" stroke="#0F9ED5" stroke-width="13.75" stroke-miterlimit="8" fill="url(#fill6)"/><text font-family="Aptos,Aptos_MSFontService,sans-serif" font-weight="700" font-size="73" transform="matrix(1 0 0 1 2044.47 901)">4b</text><text font-family="Aptos,Aptos_MSFontService,sans-serif" font-weight="400" font-size="73" transform="matrix(1 0 0 1 2126.4 901)">-</text><text font-family="Aptos,Aptos_MSFontService,sans-serif" font-weight="400" font-size="73" transform="matrix(1 0 0 1 2151.6 901)">Apply</text><text font-family="Aptos,Aptos_MSFontService,sans-serif" font-weight="400" font-size="73" transform="matrix(1 0 0 1 2001.11 989)">PQR to PDB</text><path d="M1.50372e-05-13.75 261.25-13.7497 261.25 13.7503-1.50372e-05 13.75ZM247.5-41.2497 330 0.000360892 247.5 41.2503Z" fill="#0F9ED5" transform="matrix(-1 0 0 1 2847 921)"/><text font-family="Aptos,Aptos_MSFontService,sans-serif" font-weight="400" font-size="83" transform="matrix(1 0 0 1 2620.25 849)">PQR</text><rect x="867" y="756" width="660" height="330" stroke="#0F9ED5" stroke-width="13.75" stroke-miterlimit="8" fill="url(#fill7)"/><text font-family="Aptos,Aptos_MSFontService,sans-serif" font-weight="700" font-size="73" transform="matrix(1 0 0 1 970.169 857)">5</text><text font-family="Aptos,Aptos_MSFontService,sans-serif" font-weight="400" font-size="73" transform="matrix(1 0 0 1 1009.13 857)">-</text><text font-family="Aptos,Aptos_MSFontService,sans-serif" font-weight="400" font-size="73" transform="matrix(1 0 0 1 1034.52 857)">Solvate, add </text><text font-family="Aptos,Aptos_MSFontService,sans-serif" font-weight="400" font-size="73" transform="matrix(1 0 0 1 946.909 945)">ions, disulfides,</text><text font-family="Aptos,Aptos_MSFontService,sans-serif" font-weight="400" font-size="73" transform="matrix(1 0 0 1 956.419 1033)">&amp; add 12</text><text font-family="Aptos,Aptos_MSFontService,sans-serif" font-weight="400" font-size="73" transform="matrix(1 0 0 1 1232.57 1033)">-</text><text font-family="Aptos,Aptos_MSFontService,sans-serif" font-weight="400" font-size="73" transform="matrix(1 0 0 1 1257.77 1033)">6</text><text font-family="Aptos,Aptos_MSFontService,sans-serif" font-weight="400" font-size="73" transform="matrix(1 0 0 1 1296.73 1033)">-</text><text font-family="Aptos,Aptos_MSFontService,sans-serif" font-weight="400" font-size="73" transform="matrix(1 0 0 1 1321.94 1033)">4 LJ</text><path d="M1.50372e-05-13.75 261.25-13.7497 261.25 13.7503-1.50372e-05 13.75ZM247.5-41.2497 330 0.000360892 247.5 41.2503Z" fill="#0F9ED5" transform="matrix(-1 0 0 1 1857 921)"/><path d="M280.426-13.7434 288.079-13.5058 296.104-12.7576 304.065-11.5198 311.951-9.80165 319.754-7.61323 327.466-4.96543 335.082-1.86949 342.597 1.66336 350.009 5.62209 357.314 9.99612 364.513 14.7754 371.603 19.9507 378.586 25.5129 385.461 31.4541 392.229 37.7666 398.968 44.523 411.887 58.8529 424.461 74.6542 436.608 91.7902 448.323 110.218 459.602 129.896 470.434 150.783 480.812 172.839 490.723 196.024 500.155 220.297 509.095 245.617 517.527 271.945 525.438 299.239 532.811 327.458 539.631 356.561 545.882 386.506 551.547 417.252 556.61 448.756 561.054 480.977 564.861 513.873 568.015 547.402 570.498 581.522 572.294 616.19 573.384 651.363 573.751 686.999 573.398 721.895 572.352 756.356 570.627 790.341 568.24 823.81 565.208 856.722 561.545 889.037 557.27 920.715 552.396 951.715 546.94 981.997 540.917 1011.52 534.343 1040.25 527.232 1068.14 519.6 1095.15 511.46 1121.24 502.827 1146.38 493.714 1170.53 484.134 1193.64 474.099 1215.68 463.619 1236.6 452.704 1256.38 441.363 1274.97 429.601 1292.33 417.422 1308.42 404.828 1323.2 391.818 1336.62 377.52 1349.41 358.24 1359.51 345.486 1335.14 363.249 1325.84 360.457 1327.78 373.116 1316.45 372.412 1317.13 384.774 1304.37 384.182 1305.03 396.232 1290.88 395.734 1291.5 407.456 1276.02 407.036 1276.6 418.413 1259.81 418.058 1260.36 429.073 1242.31 428.772 1242.83 439.409 1223.56 439.153 1224.04 449.396 1203.59 449.177 1204.05 459.009 1182.46 458.821 1182.89 468.226 1160.2 468.064 1160.61 477.025 1136.87 476.885 1137.26 485.387 1112.5 485.266 1112.87 493.292 1087.14 493.186 1087.49 500.72 1060.83 500.628 1061.17 507.653 1033.62 507.574 1033.95 514.074 1005.55 514.005 1005.87 519.963 976.655 519.904 976.966 525.304 946.99 525.253 947.292 530.08 916.592 530.037 916.888 534.273 885.504 534.237 885.795 537.866 853.768 537.837 854.055 540.843 821.428 540.82 821.712 543.186 788.525 543.169 788.806 544.88 755.101 544.869 755.381 545.907 721.199 545.901 721.478 546.251 686.861 546.251 687.142 545.887 651.789 545.893 652.073 544.811 617.184 544.823 617.469 543.042 583.088 543.06 583.375 540.598 549.544 540.622 549.833 537.496 516.596 537.526 516.889 533.753 484.288 533.791 484.586 529.389 452.665 529.434 452.968 524.421 421.77 524.474 422.08 518.867 391.649 518.929 391.967 512.746 362.345 512.818 362.672 506.076 333.903 506.16 334.242 498.877 306.368 498.974 306.719 491.168 279.785 491.279 280.151 482.967 254.198 483.096 254.582 474.295 229.654 474.445 230.057 465.174 206.198 465.347 206.622 455.622 183.875 455.824 184.324 445.664 162.731 445.9 163.208 435.322 142.813 435.599 143.32 424.621 124.166 424.947 124.706 413.586 106.836 413.972 107.411 402.247 90.8687 402.705 91.479 390.632 76.3075 391.179 76.9525 378.776 63.1947 379.254 63.6986 372.934 57.3634 373.29 57.7074 366.894 51.7418 367.283 52.0905 360.813 46.4999 361.237 46.8512 354.696 41.641 355.157 41.9926 348.547 37.1682 349.048 37.5169 342.371 33.0837 342.913 33.4257 336.171 29.3892 336.756 29.7203 329.951 26.0857 330.58 26.4011 323.715 23.1739 324.386 23.468 317.463 20.6536 318.176 20.9207 311.196 18.5245 311.948 18.7587 304.915 16.786 305.701 16.9817 298.616 15.438 299.43 15.59 292.296 14.4807 293.132 14.5846 285.95 13.915 286.8 13.9678 279.573 13.7434ZM380.382 1380.15 288.37 1373.69 348.741 1303.96Z" fill="#0F9ED5" transform="matrix(-6.12323e-17 -1 -1 6.12323e-17 2859 1039)"/><text font-family="Aptos,Aptos_MSFontService,sans-serif" font-weight="400" font-size="83" transform="matrix(1 0 0 1 1981.72 589)">Skip editing</text><text font-family="Aptos,Aptos_MSFontService,sans-serif" font-weight="400" font-size="83" transform="matrix(1 0 0 1 1869.55 688)">(copy PDB from </text><text font-family="Aptos,Aptos_MSFontService,sans-serif" font-weight="700" font-size="83" transform="matrix(1 0 0 1 2435.95 688)">2</text><text font-family="Aptos,Aptos_MSFontService,sans-serif" font-weight="400" font-size="83" transform="matrix(1 0 0 1 2480.07 688)">)</text><text font-family="Aptos,Aptos_MSFontService,sans-serif" font-weight="400" font-size="83" transform="matrix(1 0 0 1 1626.01 849)">PDB</text><path d="M1210.75 1086 1210.75 1347.25 1183.25 1347.25 1183.25 1086ZM1238.25 1333.5 1197 1416 1155.75 1333.5Z" fill="url(#fill8)"/><rect x="867" y="1416" width="660" height="330" stroke="#4EA72E" stroke-width="13.75" stroke-miterlimit="8" fill="url(#fill9)"/><text font-family="Aptos,Aptos_MSFontService,sans-serif" font-weight="700" font-size="73" transform="matrix(1 0 0 1 1025.34 1561)">6</text><text font-family="Aptos,Aptos_MSFontService,sans-serif" font-weight="400" font-size="73" transform="matrix(1 0 0 1 1064.3 1561)">-</text><text font-family="Aptos,Aptos_MSFontService,sans-serif" font-weight="400" font-size="73" transform="matrix(1 0 0 1 1085.86 1561)">Visualize </text><text font-family="Aptos,Aptos_MSFontService,sans-serif" font-weight="400" font-size="73" transform="matrix(1 0 0 1 941.581 1649)">solvated system</text><rect x="1857" y="1416" width="660" height="330" stroke="#E97132" stroke-width="13.75" stroke-miterlimit="8" fill="url(#fill10)"/><text font-family="Aptos,Aptos_MSFontService,sans-serif" font-weight="700" font-size="73" transform="matrix(1 0 0 1 2048.47 1517)">7</text><text font-family="Aptos,Aptos_MSFontService,sans-serif" font-weight="400" font-size="73" transform="matrix(1 0 0 1 2087.43 1517)">-</text><text font-family="Aptos,Aptos_MSFontService,sans-serif" font-weight="400" font-size="73" transform="matrix(1 0 0 1 2112.63 1517)">Energy </text><text font-family="Aptos,Aptos_MSFontService,sans-serif" font-weight="400" font-size="73" transform="matrix(1 0 0 1 1981.09 1605)">minimization </text><text font-family="Aptos,Aptos_MSFontService,sans-serif" font-weight="400" font-size="73" transform="matrix(1 0 0 1 1986.94 1693)">(stage 1 of 4)</text><rect x="2847" y="1416" width="660" height="330" stroke="#E97132" stroke-width="13.75" stroke-miterlimit="8" fill="url(#fill11)"/><text font-family="Aptos,Aptos_MSFontService,sans-serif" font-weight="700" font-size="73" transform="matrix(1 0 0 1 2955.15 1561)">8</text><text font-family="Aptos,Aptos_MSFontService,sans-serif" font-weight="400" font-size="73" transform="matrix(1 0 0 1 2994.11 1561)">-</text><text font-family="Aptos,Aptos_MSFontService,sans-serif" font-weight="400" font-size="73" transform="matrix(1 0 0 1 3019.32 1561)">NVT heating </text><text font-family="Aptos,Aptos_MSFontService,sans-serif" font-weight="400" font-size="73" transform="matrix(1 0 0 1 2976.95 1649)">(stage 2 of 4)</text><path d="M2517 1567.25 2778.25 1567.25 2778.25 1594.75 2517 1594.75ZM2764.5 1539.75 2847 1581 2764.5 1622.25Z" fill="#E97132"/><text font-family="Aptos,Aptos_MSFontService,sans-serif" font-weight="400" font-size="83" transform="matrix(1 0 0 1 1616.84 183)">PDB</text><text font-family="Aptos,Aptos_MSFontService,sans-serif" font-weight="400" font-size="83" transform="matrix(1 0 0 1 2604.78 182)">PDB</text><path d="M3190.75 1749 3190.75 2010.25 3163.25 2010.25 3163.25 1749ZM3218.25 1996.5 3177 2079 3135.75 1996.5Z" fill="#E97132"/><rect x="2847" y="2077" width="660" height="330" stroke="#E97132" stroke-width="13.75" stroke-miterlimit="8" fill="url(#fill12)"/><text font-family="Aptos,Aptos_MSFontService,sans-serif" font-weight="700" font-size="73" transform="matrix(1 0 0 1 3080.91 2178)">9</text><text font-family="Aptos,Aptos_MSFontService,sans-serif" font-weight="400" font-size="73" transform="matrix(1 0 0 1 3119.87 2178)">-</text><text font-family="Aptos,Aptos_MSFontService,sans-serif" font-weight="400" font-size="73" transform="matrix(1 0 0 1 3145.08 2178)">NPT </text><text font-family="Aptos,Aptos_MSFontService,sans-serif" font-weight="400" font-size="73" transform="matrix(1 0 0 1 2976.87 2266)">equilibration </text><text font-family="Aptos,Aptos_MSFontService,sans-serif" font-weight="400" font-size="73" transform="matrix(1 0 0 1 2976.94 2354)">(stage 3 of 4)</text><path d="M1.50372e-05-13.75 261.25-13.7497 261.25 13.7503-1.50372e-05 13.75ZM247.5-41.2497 330 0.000360892 247.5 41.2503Z" fill="#E97132" transform="matrix(-1 0 0 1 2847 2242)"/><rect x="1857" y="2077" width="660" height="330" stroke="#E97132" stroke-width="13.75" stroke-miterlimit="8" fill="url(#fill13)"/><text font-family="Aptos,Aptos_MSFontService,sans-serif" font-weight="700" font-size="73" transform="matrix(1 0 0 1 2071.44 2178)">10</text><text font-family="Aptos,Aptos_MSFontService,sans-serif" font-weight="400" font-size="73" transform="matrix(1 0 0 1 2149.36 2178)">-</text><text font-family="Aptos,Aptos_MSFontService,sans-serif" font-weight="400" font-size="73" transform="matrix(1 0 0 1 2174.57 2178)">NPT </text><text font-family="Aptos,Aptos_MSFontService,sans-serif" font-weight="400" font-size="73" transform="matrix(1 0 0 1 2012.32 2266)">production</text><text font-family="Aptos,Aptos_MSFontService,sans-serif" font-weight="400" font-size="73" transform="matrix(1 0 0 1 1986.95 2354)">(stage 4 of 4)</text><rect x="867" y="2077" width="660" height="330" stroke="#4EA72E" stroke-width="13.75" stroke-miterlimit="8" fill="url(#fill14)"/><text font-family="Aptos,Aptos_MSFontService,sans-serif" font-weight="700" font-size="73" transform="matrix(1 0 0 1 929.08 2178)">11</text><text font-family="Aptos,Aptos_MSFontService,sans-serif" font-weight="400" font-size="73" transform="matrix(1 0 0 1 1007 2178)">-</text><text font-family="Aptos,Aptos_MSFontService,sans-serif" font-weight="400" font-size="73" transform="matrix(1 0 0 1 1028.56 2178)">Visualize final </text><text font-family="Aptos,Aptos_MSFontService,sans-serif" font-weight="400" font-size="73" transform="matrix(1 0 0 1 1014.79 2266)">trajectory &amp;</text><text font-family="Aptos,Aptos_MSFontService,sans-serif" font-weight="400" font-size="73" transform="matrix(1 0 0 1 941.822 2354)">further analyses</text><path d="M1.50372e-05-13.75 261.25-13.7497 261.25 13.7503-1.50372e-05 13.75ZM247.5-41.2497 330 0.000360892 247.5 41.2503Z" fill="url(#fill15)" transform="matrix(-1 0 0 1 1857 2242)"/><text font-family="Aptos,Aptos_MSFontService,sans-serif" font-weight="400" font-size="83" transform="matrix(1 0 0 1 2572.78 1689)">rst7</text><text font-family="Aptos,Aptos_MSFontService,sans-serif" font-weight="400" font-size="83" transform="matrix(1 0 0 1 1626.77 1297)">mdin</text><path d="M141.196-13.7324 156.258-12.9691 171.581-10.6221 186.379-6.80379 200.565-1.59318 214.057 4.92974 226.778 12.6853 238.651 21.595 249.6 31.5814 260.361 43.4642 273.237 69.0579 248.671 81.4171 236.634 57.4905 238.725 60.5409 229.657 50.528 230.583 51.457 220.605 42.3565 221.618 43.1952 210.802 35.0782 211.897 35.8207 200.313 28.7581 201.486 29.3972 189.204 23.4598 190.448 23.9874 177.54 19.246 178.845 19.653 165.38 16.1785 166.734 16.4561 152.784 14.3195 154.169 14.4603 139.804 13.7324ZM296.402 50.0574 281 141 217.487 74.1127Z" fill="#E97132" transform="matrix(1.83697e-16 1 1 -1.83697e-16 1711 1197)"/><text font-family="Aptos,Aptos_MSFontService,sans-serif" font-weight="400" font-size="83" transform="matrix(1 0 0 1 2616.6 1297)">mdin</text><path d="M141.196-13.7324 156.258-12.9691 171.581-10.6221 186.379-6.80379 200.565-1.59318 214.057 4.92974 226.778 12.6853 238.651 21.595 249.6 31.5814 260.361 43.4642 273.237 69.0579 248.671 81.4171 236.634 57.4905 238.725 60.5409 229.657 50.528 230.583 51.457 220.605 42.3565 221.618 43.1952 210.802 35.0782 211.897 35.8207 200.313 28.7581 201.486 29.3972 189.204 23.4598 190.448 23.9874 177.54 19.246 178.845 19.653 165.38 16.1785 166.734 16.4561 152.784 14.3195 154.169 14.4603 139.804 13.7324ZM296.402 50.0574 281 141 217.487 74.1127Z" fill="#E97132" transform="matrix(1.83697e-16 1 1 -1.83697e-16 2701 1197)"/><text font-family="Aptos,Aptos_MSFontService,sans-serif" font-weight="400" font-size="83" transform="matrix(1 0 0 1 3283.54 1850)">mdin</text><path d="M3387.75 1884 3387.75 2009.51 3360.25 2009.51 3360.25 1884ZM3415.25 1995.76 3374 2078.26 3332.75 1995.76Z" fill="#E97132"/><text font-family="Aptos,Aptos_MSFontService,sans-serif" font-weight="400" font-size="83" transform="matrix(1 0 0 1 2991.1 1925)">rst7</text><text font-family="Aptos,Aptos_MSFontService,sans-serif" font-weight="400" font-size="83" transform="matrix(1 0 0 1 2653.86 2351)">rst7</text><text font-family="Aptos,Aptos_MSFontService,sans-serif" font-weight="400" font-size="83" transform="matrix(1 0 0 1 1555.66 2351)">rst7, </text><text font-family="Aptos,Aptos_MSFontService,sans-serif" font-weight="400" font-size="83" transform="matrix(1 0 0 1 1733.13 2351)">nc</text><text font-family="Aptos,Aptos_MSFontService,sans-serif" font-weight="400" font-size="83" transform="matrix(1 0 0 1 2570.82 1958)">mdin</text><path d="M2675.73 1999.69 2674.97 2014.8 2672.62 2030.17 2668.81 2045.01 2663.6 2059.24 2657.08 2072.78 2649.33 2085.54 2640.42 2097.45 2630.44 2108.44 2618.55 2119.23 2592.94 2132.17 2580.55 2107.62 2604.49 2095.53 2601.44 2097.63 2611.45 2088.53 2610.53 2089.45 2619.63 2079.44 2618.79 2080.45 2626.91 2069.6 2626.17 2070.7 2633.23 2059.07 2632.59 2060.24 2638.53 2047.92 2638.01 2049.16 2642.75 2036.2 2642.34 2037.5 2645.82 2023.99 2645.54 2025.34 2647.68 2011.34 2647.54 2012.72 2648.27 1998.31ZM2611.96 2155.32 2521 2140 2587.83 2076.43Z" fill="#E97132"/><text font-family="Aptos,Aptos_MSFontService,sans-serif" font-style="italic" font-weight="400" font-size="83" transform="matrix(1 0 0 1 1870.44 1890)">further outputs:</text><text font-family="Aptos,Aptos_MSFontService,sans-serif" font-weight="400" font-size="83" transform="matrix(1 0 0 1 1883.71 1989)">mdout</text><text font-family="Aptos,Aptos_MSFontService,sans-serif" font-weight="400" font-size="83" transform="matrix(1 0 0 1 2118.6 1989)">, </text><text font-family="Aptos,Aptos_MSFontService,sans-serif" font-weight="400" font-size="83" transform="matrix(1 0 0 1 2158.71 1989)">mdinfo</text><text font-family="Aptos,Aptos_MSFontService,sans-serif" font-weight="400" font-size="83" transform="matrix(1 0 0 1 2226.24 1227)">parm7,</text><text font-family="Aptos,Aptos_MSFontService,sans-serif" font-weight="400" font-size="83" transform="matrix(1 0 0 1 2285.6 1326)">rst7</text><text font-family="Aptos,Aptos_MSFontService,sans-serif" font-weight="400" font-size="83" transform="matrix(1 0 0 1 2809.9 597)">PDB</text></g></svg>